<?xml version="1.0" standalone="no"?>
<!DOCTYPE svg PUBLIC "-//W3C//DTD SVG 20010904//EN"
 "http://www.w3.org/TR/2001/REC-SVG-20010904/DTD/svg10.dtd">
<svg version="1.0" xmlns="http://www.w3.org/2000/svg"
 width="128.000000pt" height="128.000000pt" viewBox="0 0 128.000000 128.000000"
 preserveAspectRatio="xMidYMid meet">
<metadata>
Created by potrace 1.16, written by Peter Selinger 2001-2019
</metadata>
<g transform="translate(0.000000,128.000000) scale(0.027292,-0.027292)"
fill="#000000" stroke="none">
<path d="M815 3752 c-66 -46 -62 -66 42 -175 123 -130 183 -201 241 -288 67
-100 87 -137 80 -145 -4 -3 -34 4 -68 15 -34 12 -81 24 -103 27 -36 5 -45 2
-66 -20 -36 -38 -21 -68 64 -133 168 -129 479 -477 444 -498 -6 -4 -54 -4
-106 -1 -89 7 -97 6 -129 -16 -19 -13 -34 -31 -34 -41 0 -29 51 -69 121 -97
69 -26 248 -142 367 -237 l73 -58 -1 -510 -1 -511 28 -26 c46 -44 122 -38 328
23 186 56 219 70 235 98 6 12 10 139 10 339 l0 319 125 17 c68 9 177 30 240
46 71 18 142 30 181 30 70 0 117 17 134 50 9 17 21 20 70 20 51 0 64 4 89 28
27 25 32 42 66 222 20 107 38 204 41 216 4 14 -3 31 -19 50 l-25 29 -449 5
-448 5 0 145 0 145 573 5 574 5 28 32 c16 18 32 49 35 70 4 21 29 117 56 214
27 96 49 187 49 200 0 15 -12 37 -28 52 l-28 27 -901 0 -901 0 -31 -26 c-21
-17 -31 -35 -31 -53 0 -15 -3 -30 -6 -34 -4 -3 -36 18 -73 47 -175 141 -472
309 -679 385 -101 38 -116 38 -167 3z m117 -98 c131 -56 280 -138 407 -224
297 -202 492 -436 671 -805 112 -233 261 -400 460 -518 70 -41 34 -32 -49 13
-141 77 -233 162 -341 315 -221 312 -436 491 -743 618 -22 10 -45 29 -55 48
-37 67 -191 297 -241 359 -28 36 -88 102 -133 148 -45 45 -77 82 -71 82 6 0
49 -16 95 -36z m2584 -301 c-18 -60 -59 -216 -86 -323 -17 -69 -36 -130 -42
-137 -8 -10 -138 -13 -604 -13 l-593 0 -3 -152 -3 -153 -63 118 c-81 150 -182
304 -261 395 l-61 71 0 105 0 106 861 0 c815 0 860 -1 855 -17z m-2425 -253
c419 -123 693 -314 933 -650 145 -203 246 -295 421 -384 99 -50 100 -53 7 -31
-104 25 -199 76 -317 170 -184 148 -306 214 -475 259 -51 14 -93 27 -94 28 -1
2 -49 66 -106 143 -121 162 -279 330 -397 422 -75 58 -91 73 -79 73 2 0 50
-14 107 -30z m328 -631 c278 -26 477 -111 706 -302 44 -37 109 -82 145 -101
70 -37 187 -76 226 -76 45 0 24 -17 -33 -28 -116 -23 -250 -34 -320 -28 -125
11 -165 32 -348 181 -222 180 -352 268 -482 326 -35 15 -63 31 -63 34 0 8 41
6 169 -6z m1719 -4 c4 -4 -67 -400 -76 -423 -4 -11 -34 -13 -161 -10 -151 3
-158 4 -223 35 -140 66 -265 169 -374 309 -35 45 -64 86 -64 90 0 8 890 7 898
-1z m-1141 -537 c23 -10 75 -22 115 -26 l73 -7 3 -362 2 -362 -67 -20 c-38
-11 -125 -35 -195 -54 l-128 -34 0 498 0 498 78 -56 c42 -31 96 -64 119 -75z"/>
</g>
</svg>
